#!OML:ASF F:\VICON\USERDATA\INSTALL\rory3\rory3.ASF
:FULLY-SPECIFIED
:DEGREES
276
root 5.06788 18.006 -6.67881 2.94788 54.5443 5.30986
lowerback 8.76764 0.733587 -5.45036
upperback 4.51715 0.650249 -3.24792
thorax -0.238723 0.328286 -0.35684
lowerneck -3.4935 -3.18274 -8.32628
upperneck 29.5867 -3.51236 3.23855
head 10.2099 -1.9469 2.29881
rclavicle -7.35503e-015 3.73715e-014
rhumerus -33.0889 -1.24125 -75.3768
rradius 34.6449
rwrist 15.443
rhand -26.1814 3.06451
rfingers 7.12502
rthumb 0.370563 -26.9149
lclavicle -7.35503e-015 3.73715e-014
lhumerus -31.2367 -26.6749 89.3819
lradius 65.3209
lwrist 7.83291
lhand -0.566293 29.7368
lfingers 7.12502
lthumb 25.0479 58.1144
rfemur -15.1861 12.0409 20.0409
rtibia 64.8334
rfoot -5.45986 12.2028
rtoes -17.2234
lfemur -26.0671 7.77748 -24.3357
ltibia 40.1055
lfoot -11.9957 4.52916
ltoes 8.68521
277
root 5.13596 17.9993 -6.67111 2.22601 54.3337 4.86381
lowerback 9.07896 0.597628 -5.26326
upperback 4.68965 0.474085 -3.22534
thorax -0.224227 0.242697 -0.424554
lowerneck -3.56064 -3.06264 -8.45732
upperneck 29.5672 -3.30131 3.14972
head 10.2041 -1.8756 2.3091
rclavicle -3.53837e-014 -1.03368e-014
rhumerus -33.0031 -0.486848 -75.4884
rradius 34.5694
rwrist 15.5067
rhand -25.5175 3.79466
rfingers 7.12502
rthumb 1.01173 -26.1827
lclavicle -3.53837e-014 -1.03368e-014
lhumerus -30.6326 -26.8137 89.0013
lradius 65.1582
lwrist 7.90296
lhand -0.618568 29.2992
lfingers 7.12502
lthumb 24.9978 57.6838
rfemur -15.7476 11.3632 20.2072
rtibia 65.6475
rfoot -6.41813 11.763
rtoes -18.0549
lfemur -25.6433 7.61913 -24.0594
ltibia 40.5521
lfoot -12.3814 4.8443
ltoes 7.9034
278
root 5.20393 17.9945 -6.6667 1.66707 54.1539 4.50726
lowerback 9.32493 0.476248 -5.01297
upperback 4.81404 0.324542 -3.27719
thorax -0.224966 0.173187 -0.605885
lowerneck -3.48751 -2.99209 -8.529
upperneck 29.4878 -3.19653 3.12212
head 10.1549 -1.84026 2.32122
rclavicle 5.48646e-014 -3.65764e-014
rhumerus -33.0546 0.0301437 -75.6632
rradius 34.4543
rwrist 16.1315
rhand -24.3703 4.77475
rfingers 7.12502
rthumb 2.1197 -25.1945
lclavicle 5.48646e-014 -3.65764e-014
lhumerus -30.1456 -27.1101 88.6293
lradius 65.0742
lwrist 8.16401
lhand -0.854082 29.5127
lfingers 7.12502
lthumb 24.7721 57.9285
rfemur -16.3868 10.6265 20.2539
rtibia 66.3108
rfoot -7.30189 11.3052
rtoes -18.8725
lfemur -25.3087 7.50717 -23.8907
ltibia 40.9695
lfoot -12.765 5.06901
ltoes 6.69736
279
root 5.26953 17.9877 -6.65996 0.964567 53.9452 3.92803
lowerback 9.51778 0.399873 -4.63197
upperback 4.9028 0.24672 -3.33619
thorax -0.236836 0.141853 -0.873667
lowerneck -3.31672 -2.95542 -8.39321
upperneck 29.4244 -3.16919 3.07805
head 10.0921 -1.81976 2.28533
rclavicle -9.6013e-014 1.82882e-014
rhumerus -33.183 0.28263 -75.8301
rradius 34.3927
rwrist 16.6273
rhand -23.6862 5.1074
rfingers 7.12502
rthumb 2.78042 -24.8542
lclavicle -9.6013e-014 1.82882e-014
lhumerus -29.6466 -27.5366 88.2605
lradius 64.9158
lwrist 8.50171
lhand -0.925147 29.5475
lfingers 7.12502
lthumb 24.704 57.9726
rfemur -17.0375 9.941 20.4793
rtibia 66.8559
rfoot -8.20593 10.8844
rtoes -20.3479
lfemur -25.0142 7.44831 -23.5845
ltibia 41.3443
lfoot -13.1646 5.30504
ltoes 6.49659
280
root 5.3321 17.9822 -6.64301 0.2394 53.7009 3.38916
lowerback 9.67376 0.350478 -4.45653
upperback 5.02943 0.194666 -3.34168
thorax -0.189814 0.118565 -0.973307
lowerneck -3.13778 -2.9021 -8.30089
upperneck 29.3632 -3.12834 3.09245
head 10.0295 -1.79168 2.27928
rclavicle -8.07066e-014 -3.97569e-015
rhumerus -33.252 0.432044 -75.8648
rradius 34.3733
rwrist 16.9215
rhand -23.3316 5.11183
rfingers 7.12502
rthumb 3.12282 -24.8451
lclavicle -8.07066e-014 -3.97569e-015
lhumerus -29.1804 -27.8995 87.9353
lradius 64.7669
lwrist 8.58934
lhand -0.66174 29.0305
lfingers 7.12502
lthumb 24.9564 57.4208
rfemur -17.601 9.38767 20.7592
rtibia 67.3148
rfoot -9.04236 10.5729
rtoes -20.8045
lfemur -24.6148 7.39127 -23.2428
ltibia 41.677
lfoot -13.6314 5.53796
ltoes 6.67385
281
root 5.39056 17.9769 -6.62367 -0.0995566 53.4229 3.28442
lowerback 9.83099 0.300777 -4.60001
upperback 5.13546 0.115274 -3.39236
thorax -0.163032 0.0776215 -0.938981
lowerneck -3.01723 -2.81481 -8.31393
upperneck 29.3304 -3.02652 3.12824
head 9.98785 -1.74474 2.30455
rclavicle -4.63168e-014 1.90833e-014
rhumerus -33.2994 0.57498 -75.8591
rradius 34.3617
rwrist 17.3356
rhand -22.9049 5.13511
rfingers 7.12502
rthumb 3.53492 -24.8153
lclavicle -4.63168e-014 1.90833e-014
lhumerus -28.8417 -28.1653 87.6212
lradius 64.7047
lwrist 8.43107
lhand -0.767394 29.0067
lfingers 7.12502
lthumb 24.8551 57.411
rfemur -18.2383 8.92384 20.7464
rtibia 67.7412
rfoot -9.78168 10.3824
rtoes -19.5102
lfemur -24.2156 7.36932 -23.1678
ltibia 41.944
lfoot -14.0582 5.74705
ltoes 6.2632
282
root 5.4414 17.9675 -6.6065 -0.19173 53.0877 3.35681
lowerback 9.94486 0.285964 -4.96277
upperback 5.21166 0.0639967 -3.40638
thorax -0.142455 0.0459908 -0.746628
lowerneck -3.01272 -2.76002 -8.30966
upperneck 29.3765 -2.92836 3.03733
head 9.99686 -1.71061 2.2811
rclavicle -2.72335e-014 1.11319e-014
rhumerus -33.3133 0.729243 -75.7772
rradius 34.3659
rwrist 17.6989
rhand -22.3363 5.30059
rfingers 7.12502
rthumb 4.08403 -24.64
lclavicle -2.72335e-014 1.11319e-014
lhumerus -28.4339 -28.3352 87.3625
lradius 64.6032
lwrist 8.32644
lhand -1.06072 29.6658
lfingers 7.12502
lthumb 24.574 58.1086
rfemur -19.0326 8.33434 20.6075
rtibia 68.1968
rfoot -10.8272 10.2956
rtoes -20.6365
lfemur -23.9511 7.45559 -23.2199
ltibia 42.1723
lfoot -14.3695 5.93583
ltoes 5.883
283
root 5.4874 17.9612 -6.58765 -0.0407311 52.6808 3.68583
lowerback 10.0222 0.311232 -5.60939
upperback 5.28674 0.0444782 -3.42242
thorax -0.100692 0.0245746 -0.401349
lowerneck -3.19209 -2.71198 -8.23251
upperneck 29.6059 -2.81336 2.88351
head 10.1061 -1.66804 2.22506
rclavicle 9.44227e-014 -1.11319e-014
rhumerus -33.2708 0.797325 -75.6443
rradius 34.4377
rwrist 17.65
rhand -22.2129 5.91084
rfingers 7.12502
rthumb 4.20321 -24.0274
lclavicle 9.44227e-014 -1.11319e-014
lhumerus -28.0404 -28.509 87.1562
lradius 64.5969
lwrist 8.18438
lhand -1.23423 30.5086
lfingers 7.12502
lthumb 24.4077 58.974
rfemur -19.8807 7.74316 20.3397
rtibia 68.6275
rfoot -12.0975 10.1195
rtoes -23.4429
lfemur -23.6982 7.60336 -23.4253
ltibia 42.337
lfoot -14.7605 6.09511
ltoes 6.48747
284
root 5.53692 17.9498 -6.56918 0.354035 52.2271 4.2241
lowerback 10.0206 0.321385 -6.13461
upperback 5.3006 0.0169342 -3.66103
thorax -0.0789072 0.00581471 -0.35424
lowerneck -3.41042 -2.63507 -8.03496
upperneck 29.9696 -2.7031 2.86323
head 10.2716 -1.60204 2.19728
rclavicle 1.05952e-013 -3.18055e-015
rhumerus -33.3355 0.638837 -75.7076
rradius 34.6063
rwrist 17.338
rhand -22.4224 6.33919
rfingers 7.12502
rthumb 4.00085 -23.603
lclavicle 1.05952e-013 -3.18055e-015
lhumerus -27.7879 -28.8476 86.7897
lradius 64.6928
lwrist 7.97988
lhand -1.55393 31.2544
lfingers 7.12502
lthumb 24.1012 59.7607
rfemur -20.863 7.33449 19.9037
rtibia 68.9844
rfoot -13.0564 9.98672
rtoes -24.0757
lfemur -23.5366 7.70142 -23.7958
ltibia 42.5053
lfoot -15.239 6.37589
ltoes 6.93715
